<svg width="113" height="33" viewBox="0 0 113 33" fill="none" xmlns="http://www.w3.org/2000/svg">
<path d="M9.80922 0.914852H14.9844C15.0257 0.914852 15.0627 0.940251 15.0784 0.976938L24.7867 24.8619C24.8137 24.9283 24.7639 24.9988 24.6927 24.9988H19.9119C19.8706 24.9988 19.8336 24.9734 19.8179 24.9353L17.7507 19.7285C17.735 19.6904 17.698 19.665 17.6567 19.665H7.13691C7.09562 19.665 7.0586 19.6904 7.04294 19.7285L4.97571 24.9353C4.96005 24.9734 4.92303 24.9988 4.88174 24.9988H0.100911C0.0297255 24.9988 -0.0186808 24.9268 0.00694607 24.8619L9.71525 0.976938C9.73091 0.93884 9.76793 0.914852 9.80922 0.914852ZM15.9924 15.1454L12.4673 6.09767C12.4474 6.04687 12.3747 6.04687 12.3548 6.09767L8.80123 15.1454C8.78557 15.1849 8.81546 15.2272 8.85818 15.2272H15.9369C15.9796 15.2272 16.0081 15.1849 15.9938 15.1454H15.9924Z" fill="#080808"/>
<path d="M25.9741 7.93346H30.389C30.4445 7.93346 30.4901 7.97861 30.4901 8.03364V9.58016C30.4901 9.63802 30.5655 9.662 30.5997 9.61544C30.7748 9.37697 31.1678 8.91132 31.827 8.46684C32.7638 7.8361 33.9041 7.52002 35.2467 7.52002C35.7265 7.52002 36.2063 7.55106 36.6861 7.61174C36.7373 7.61879 36.7743 7.66112 36.7743 7.71192V11.5641C36.7743 11.6262 36.7188 11.6728 36.6562 11.6615C36.2262 11.5853 35.7692 11.5458 35.2809 11.5458C33.823 11.5458 32.6598 11.9366 31.7914 12.7155C30.9229 13.4959 30.4901 14.5513 30.4901 15.8805V24.8986C30.4901 24.9537 30.4445 24.9988 30.389 24.9988H25.9741C25.9185 24.9988 25.873 24.9537 25.873 24.8986V8.03364C25.873 7.97861 25.9185 7.93346 25.9741 7.93346Z" fill="#080808"/>
<path d="M42.072 31.9497C40.7992 31.5828 39.7001 31.0607 38.7747 30.3834C37.8763 29.7273 37.2186 28.9568 36.7986 28.0749C36.7772 28.0284 36.7943 27.9733 36.8384 27.9465L40.1115 25.9809C40.1585 25.9527 40.2197 25.9682 40.2482 26.0148C40.7166 26.7782 41.4797 27.4033 42.5404 27.8901C43.6395 28.3938 44.861 28.6464 46.2036 28.6464C47.7071 28.6464 48.8531 28.2852 49.6405 27.5627C50.4263 26.8402 50.8207 25.8708 50.8207 24.6559V22.7665C50.8207 22.7143 50.7581 22.6861 50.7196 22.7228C50.5061 22.9203 49.9565 23.386 49.1023 23.8135C47.979 24.3751 46.7119 24.6559 45.301 24.6559C43.7036 24.6559 42.2514 24.2834 40.9444 23.537C39.636 22.7919 38.6124 21.7703 37.872 20.475C37.1303 19.1796 36.7615 17.7276 36.7615 16.1218C36.7615 14.5161 37.1317 13.0598 37.872 11.7518C38.6124 10.4437 39.636 9.41225 40.9444 8.65451C42.2514 7.89819 43.7036 7.51861 45.301 7.51861C46.7361 7.51861 48.0203 7.79941 49.155 8.36101C49.995 8.77869 50.5061 9.35299 50.7139 9.6225C50.7495 9.66765 50.8221 9.64225 50.8221 9.58581V8.03224C50.8221 7.9772 50.8677 7.93205 50.9232 7.93205H55.3382C55.3937 7.93205 55.4392 7.9772 55.4392 8.03224V24.7237C55.4392 26.2603 55.0748 27.6135 54.3458 28.7833C53.6169 29.953 52.552 30.8646 51.1524 31.5193C49.7515 32.1726 48.1028 32.5 46.205 32.5C44.7229 32.5 43.3462 32.3166 42.0734 31.9497H42.072ZM48.5114 19.9585C49.2404 19.5803 49.807 19.0583 50.2128 18.3936C50.6171 17.729 50.8207 16.9713 50.8207 16.1232C50.8207 15.2752 50.6129 14.478 50.1957 13.8006C49.7786 13.1247 49.2119 12.597 48.4944 12.2174C47.7768 11.8393 46.9553 11.6502 46.0299 11.6502C45.1045 11.6502 44.3571 11.8449 43.6523 12.2344C42.9462 12.6252 42.3909 13.1586 41.9851 13.8345C41.5794 14.5118 41.3772 15.2738 41.3772 16.1218C41.3772 16.9699 41.5794 17.7276 41.9851 18.3922C42.3895 19.0583 42.9447 19.5789 43.6523 19.9571C44.3585 20.3353 45.1501 20.5243 46.0299 20.5243C46.9553 20.5243 47.7825 20.3353 48.5114 19.9571V19.9585Z" fill="#080808"/>
<path d="M61.9641 24.2594C60.5518 23.4918 59.4413 22.425 58.6312 21.0591C57.8211 19.6946 57.4154 18.1523 57.4154 16.4309C57.4154 14.7094 57.8197 13.2024 58.6312 11.8379C59.4413 10.4734 60.5575 9.41225 61.9812 8.65592C63.4049 7.89959 64.9724 7.52002 66.6852 7.52002C68.3979 7.52002 69.9654 7.89818 71.3891 8.65592C72.8128 9.41225 73.929 10.4748 74.7391 11.8379C75.5492 13.2024 75.9535 14.7334 75.9535 16.4309C75.9535 18.1284 75.5478 19.6946 74.7391 21.0591C73.929 22.425 72.8171 23.4904 71.4062 24.2594C69.9939 25.0284 68.4207 25.4122 66.6852 25.4122C64.9497 25.4122 63.375 25.0284 61.9641 24.2594ZM69.0642 20.664C69.7704 20.2506 70.3256 19.6777 70.7299 18.944C71.1343 18.2102 71.3379 17.3847 71.3379 16.4661C71.3379 15.5475 71.1357 14.7235 70.7299 13.9883C70.3242 13.2546 69.7689 12.6803 69.0642 12.2682C68.358 11.8548 67.565 11.6488 66.6866 11.6488C65.8082 11.6488 65.0137 11.8548 64.309 12.2682C63.6028 12.6817 63.0476 13.2546 62.6418 13.9883C62.2361 14.7221 62.0339 15.5489 62.0339 16.4661C62.0339 17.3833 62.2361 18.2102 62.6418 18.944C63.0462 19.6777 63.6014 20.252 64.309 20.664C65.0152 21.0775 65.8067 21.2835 66.6866 21.2835C67.5664 21.2835 68.358 21.0775 69.0642 20.664Z" fill="#080808"/>
<path d="M77.6591 19.3052C78.1916 18.2158 78.932 17.2126 79.8816 16.294C80.8298 15.3768 82.057 14.4018 83.5619 13.3689L84.1171 12.9554C85.2504 12.1765 86.1245 11.5444 86.7382 11.0632C87.3504 10.582 87.8658 10.0543 88.2829 9.47998C88.7001 8.90709 88.9079 8.29892 88.9079 7.65689C88.9079 6.76228 88.5776 6.03982 87.9184 5.4895C87.2593 4.93919 86.3609 4.66403 85.2276 4.66403C84.0943 4.66403 83.2017 4.97306 82.4158 5.59251C81.6512 6.19362 81.1487 7.0332 80.9095 8.10984C80.8981 8.16346 80.8454 8.19874 80.7913 8.18604L76.7466 7.33235C76.6939 7.32106 76.6597 7.27167 76.6668 7.21946C76.8619 5.90577 77.3488 4.7487 78.129 3.75249C78.9277 2.7323 79.957 1.93505 81.2184 1.36075C82.4798 0.787856 83.8964 0.5 85.4711 0.5C87.0457 0.5 88.4566 0.792089 89.7066 1.37768C90.9566 1.96327 91.9333 2.76052 92.6395 3.76942C93.3456 4.77833 93.6987 5.91423 93.6987 7.17572C93.6987 8.43721 93.4211 9.55618 92.8658 10.5298C92.3106 11.5048 91.6443 12.3247 90.8698 12.9907C90.0939 13.6567 89.0474 14.4356 87.7277 15.3302C87.5198 15.4671 87.3105 15.6167 87.1026 15.7775C86.7553 16.0075 86.4079 16.2474 86.0605 16.5C85.0183 17.2112 84.1854 17.8927 83.5604 18.5474C82.9525 19.1838 82.5852 19.9232 82.4585 20.7656C82.4528 20.8023 82.4827 20.8348 82.5197 20.8348H93.7357C93.7913 20.8348 93.8368 20.8799 93.8368 20.935V24.8986C93.8368 24.9537 93.7913 24.9988 93.7357 24.9988H76.9615C76.906 24.9988 76.8604 24.9537 76.8604 24.8986V22.8991C76.8604 21.5911 77.1267 20.3931 77.6591 19.3038V19.3052Z" fill="#080808"/>
<path d="M96.8223 19.3052C97.3548 18.2158 98.0951 17.2126 99.0448 16.294C99.993 15.3768 101.22 14.4018 102.725 13.3689L103.28 12.9554C104.414 12.1765 105.288 11.5444 105.901 11.0632C106.514 10.582 107.029 10.0543 107.446 9.47998C107.863 8.90709 108.071 8.29892 108.071 7.65689C108.071 6.76228 107.741 6.03982 107.082 5.4895C106.422 4.93919 105.524 4.66403 104.391 4.66403C103.258 4.66403 102.365 4.97306 101.579 5.59251C100.814 6.19362 100.312 7.0332 100.073 8.10984C100.061 8.16346 100.009 8.19874 99.9545 8.18604L95.9097 7.33235C95.8571 7.32106 95.8229 7.27167 95.83 7.21946C96.0251 5.90577 96.512 4.7487 97.2922 3.75249C98.0909 2.7323 99.1202 1.93505 100.382 1.36075C101.643 0.787856 103.06 0.5 104.634 0.5C106.209 0.5 107.62 0.792089 108.87 1.37768C110.12 1.96327 111.096 2.76052 111.803 3.76942C112.509 4.77833 112.862 5.91423 112.862 7.17572C112.862 8.43721 112.584 9.55618 112.029 10.5298C111.474 11.5048 110.807 12.3247 110.033 12.9907C109.257 13.6567 108.211 14.4356 106.891 15.3302C106.683 15.4671 106.474 15.6167 106.266 15.7775C105.918 16.0075 105.571 16.2474 105.224 16.5C104.182 17.2112 103.349 17.8927 102.724 18.5474C102.116 19.1838 101.748 19.9232 101.622 20.7656C101.616 20.8023 101.646 20.8348 101.683 20.8348H112.899C112.954 20.8348 113 20.8799 113 20.935V24.8986C113 24.9537 112.954 24.9988 112.899 24.9988H96.1247C96.0692 24.9988 96.0236 24.9537 96.0236 24.8986V22.8991C96.0236 21.5911 96.2899 20.3931 96.8223 19.3038V19.3052Z" fill="#080808"/>
</svg>
